<svg id="visual" viewBox="0 0 900 600" width="900" height="600" xmlns="http://www.w3.org/2000/svg" xmlns:xlink="http://www.w3.org/1999/xlink" version="1.1"><rect x="0" y="0" width="900" height="600" fill="#001220"></rect><defs><linearGradient id="grad1_0" x1="33.3%" y1="0%" x2="100%" y2="100%"><stop offset="20%" stop-color="#fbae3c" stop-opacity="1"></stop><stop offset="80%" stop-color="#fbae3c" stop-opacity="1"></stop></linearGradient></defs><defs><linearGradient id="grad1_1" x1="33.3%" y1="0%" x2="100%" y2="100%"><stop offset="20%" stop-color="#fbae3c" stop-opacity="1"></stop><stop offset="80%" stop-color="#cc5867" stop-opacity="1"></stop></linearGradient></defs><defs><linearGradient id="grad1_2" x1="33.3%" y1="0%" x2="100%" y2="100%"><stop offset="20%" stop-color="#593762" stop-opacity="1"></stop><stop offset="80%" stop-color="#cc5867" stop-opacity="1"></stop></linearGradient></defs><defs><linearGradient id="grad1_3" x1="33.3%" y1="0%" x2="100%" y2="100%"><stop offset="20%" stop-color="#593762" stop-opacity="1"></stop><stop offset="80%" stop-color="#001220" stop-opacity="1"></stop></linearGradient></defs><defs><linearGradient id="grad2_0" x1="0%" y1="0%" x2="66.7%" y2="100%"><stop offset="20%" stop-color="#fbae3c" stop-opacity="1"></stop><stop offset="80%" stop-color="#fbae3c" stop-opacity="1"></stop></linearGradient></defs><defs><linearGradient id="grad2_1" x1="0%" y1="0%" x2="66.7%" y2="100%"><stop offset="20%" stop-color="#cc5867" stop-opacity="1"></stop><stop offset="80%" stop-color="#fbae3c" stop-opacity="1"></stop></linearGradient></defs><defs><linearGradient id="grad2_2" x1="0%" y1="0%" x2="66.7%" y2="100%"><stop offset="20%" stop-color="#cc5867" stop-opacity="1"></stop><stop offset="80%" stop-color="#593762" stop-opacity="1"></stop></linearGradient></defs><defs><linearGradient id="grad2_3" x1="0%" y1="0%" x2="66.7%" y2="100%"><stop offset="20%" stop-color="#001220" stop-opacity="1"></stop><stop offset="80%" stop-color="#593762" stop-opacity="1"></stop></linearGradient></defs><g transform="translate(900, 0)"><path d="M0 405.6C-58.2 405.9 -116.4 406.1 -155.2 374.7C-194 343.4 -213.4 280.4 -236.2 236.2C-259 191.9 -285.3 166.4 -314.1 130.1C-342.9 93.9 -374.3 46.9 -405.6 0L0 0Z" fill="#232745"></path><path d="M0 304.2C-43.7 304.4 -87.3 304.6 -116.4 281.1C-145.5 257.5 -160 210.3 -177.1 177.1C-194.2 143.9 -214 124.8 -235.6 97.6C-257.2 70.4 -280.7 35.2 -304.2 0L0 0Z" fill="#96446e"></path><path d="M0 202.8C-29.1 202.9 -58.2 203.1 -77.6 187.4C-97 171.7 -106.7 140.2 -118.1 118.1C-129.5 96 -142.6 83.2 -157.1 65.1C-171.5 46.9 -187.1 23.5 -202.8 0L0 0Z" fill="#f17c53"></path><path d="M0 101.4C-14.6 101.5 -29.1 101.5 -38.8 93.7C-48.5 85.8 -53.3 70.1 -59 59C-64.7 48 -71.3 41.6 -78.5 32.5C-85.7 23.5 -93.6 11.7 -101.4 0L0 0Z" fill="#fbae3c"></path></g><g transform="translate(0, 600)"><path d="M0 -405.6C56 -404 112 -402.4 155.2 -374.7C198.4 -347.1 228.8 -293.5 247.5 -247.5C266.2 -201.5 273.1 -163.2 297.5 -123.2C321.9 -83.3 363.8 -41.6 405.6 0L0 0Z" fill="#232745"></path><path d="M0 -304.2C42 -303 84 -301.8 116.4 -281.1C148.8 -260.3 171.6 -220.1 185.6 -185.6C199.6 -151.1 204.8 -122.4 223.1 -92.4C241.4 -62.4 272.8 -31.2 304.2 0L0 0Z" fill="#96446e"></path><path d="M0 -202.8C28 -202 56 -201.2 77.6 -187.4C99.2 -173.6 114.4 -146.7 123.7 -123.7C133.1 -100.8 136.5 -81.6 148.7 -61.6C160.9 -41.6 181.9 -20.8 202.8 0L0 0Z" fill="#f17c53"></path><path d="M0 -101.4C14 -101 28 -100.6 38.8 -93.7C49.6 -86.8 57.2 -73.4 61.9 -61.9C66.5 -50.4 68.3 -40.8 74.4 -30.8C80.5 -20.8 90.9 -10.4 101.4 0L0 0Z" fill="#fbae3c"></path></g></svg>